PathFileType	4	(X/Y/Z)	D:\TRACE\v60_Jaco2_6-2-23\JustBodyDRS_Motion2_6-platform.trc
DataRate	CameraRate	NumFrames	NumMarkers	Units	OrigDataRate	OrigDataStartFrame	OrigNumFrames
100.00	100.00	      24	5	mm	100.00	843	      6741
Frame#	Time	Left_Front			Right_Front			Left_Aft			Right_Aft			Post			
		X1	Y1	Z1	X2	Y2	Z2	X3	Y3	Z3	X4	Y4	Z4	X5	Y5	Z5	

843	8.420	-750.38391	54.02362	-626.92065	819.56201	54.84171	-632.16498	-658.49945	-24.25907	505.63794	783.50732	-26.17361	515.12036	36.39425	1371.61609	-861.15363	
844	8.430	-750.07129	55.29009	-626.65533	819.74524	56.33361	-631.73438	-658.33417	-25.04790	505.83194	783.44348	-27.05770	516.22546	36.13214	1372.97961	-858.05200	
845	8.440	-749.86426	56.28820	-626.32831	819.84210	57.27475	-631.60284	-658.14374	-25.71399	505.97073	784.16730	-27.76404	515.92743	36.51981	1374.56689	-855.14752	
846	8.450	-749.85461	57.14785	-626.03076	820.03363	58.13395	-630.92688	-658.03229	-26.43060	506.30811	784.08545	-28.26174	516.22406	36.54388	1375.63916	-852.60327	
847	8.460	-749.95178	57.83289	-625.72424	820.15729	58.70128	-630.70801	-658.06415	-27.08307	506.59091	783.93622	-29.25746	516.22058	36.71418	1376.91968	-850.01074	
848	8.470	-749.94928	58.76708	-625.43457	820.07959	59.77614	-630.49109	-658.08807	-27.62489	506.65192	784.03754	-30.24845	516.29688	36.91875	1378.10449	-847.88464	
849	8.480	-750.04639	59.68188	-624.86292	820.03906	60.86018	-630.08112	-658.16510	-28.36977	506.70352	784.02972	-30.69044	516.46887	36.51751	1379.57471	-846.29504	
850	8.490	-750.03424	61.01486	-624.67310	820.06836	62.04380	-629.83386	-657.99121	-29.36084	506.90891	784.18518	-31.37019	516.58801	36.71434	1381.19348	-844.99261	
851	8.500	-750.12006	61.99067	-624.47858	820.07458	62.73805	-629.55682	-658.07465	-29.71926	506.98038	783.80579	-32.01854	517.23053	36.39531	1382.27979	-843.43622	
852	8.510	-750.26575	62.60941	-624.02472	819.89905	63.54039	-629.16559	-658.26825	-30.20926	507.09723	783.85748	-32.73323	517.32611	36.35788	1383.47119	-841.42224	
853	8.520	-750.46838	63.14060	-623.73383	819.37762	64.25111	-629.02307	-658.53107	-31.15037	507.35275	783.80212	-33.17598	517.48865	36.30904	1384.30273	-839.44611	
854	8.530	-750.82697	64.14017	-623.62872	819.26898	65.32038	-628.60187	-658.56519	-31.50103	507.48468	783.51733	-33.68690	517.59814	36.30602	1385.32300	-836.95374	
855	8.540	-751.03540	65.23515	-623.43018	819.07892	65.96609	-628.33362	-658.96820	-31.74252	507.64703	783.21497	-34.43830	517.47174	35.64544	1385.99634	-834.74371	
856	8.550	-751.37262	65.90012	-623.36102	818.63220	66.56648	-628.25128	-659.54883	-32.32176	507.65744	783.07977	-34.68745	517.60217	35.10929	1387.22107	-832.78735	
857	8.560	-751.66357	66.16943	-623.21613	818.28687	67.16035	-628.14972	-659.94293	-32.77533	507.98392	782.38275	-35.32866	517.45160	34.53104	1387.73071	-830.64795	
858	8.570	-752.10583	66.49239	-622.98706	817.87000	67.52981	-627.97906	-660.11407	-33.07307	508.16321	781.47412	-35.74585	517.89978	34.58826	1388.33630	-829.31500	
859	8.580	-752.57465	67.05209	-622.54547	817.70282	67.82368	-627.66760	-660.66699	-33.62368	508.12988	781.06042	-36.04435	518.26660	34.08847	1388.93811	-828.05341	
860	8.590	-752.67377	67.67224	-622.17633	817.43384	68.49321	-627.35303	-660.93945	-34.07513	508.22824	781.37665	-36.49820	517.94934	34.13417	1389.80969	-827.52423	
861	8.600	-753.11310	68.29820	-621.98126	816.84399	69.40751	-627.33533	-661.16675	-34.30418	508.43384	781.24420	-36.88106	518.10614	33.87385	1390.68066	-827.47516	
862	8.610	-753.41705	68.85676	-621.91400	816.41632	70.00912	-627.21979	-661.51971	-34.50510	508.31079	780.81165	-37.35184	518.09454	32.67240	1391.50940	-827.58881	
863	8.620	-753.90277	69.31197	-621.89526	815.90399	70.31119	-627.03217	-662.30176	-34.99132	508.34433	780.12000	-37.74783	518.25854	32.49492	1392.21497	-826.73059	
864	8.630	-754.55103	69.88541	-621.78204	815.51434	70.61211	-626.78741	-662.52417	-35.55109	508.58194	778.99847	-38.10298	518.64648	32.66288	1392.91602	-825.84344	
865	8.640	-755.17511	70.57626	-621.63727	814.95270	71.04305	-626.64551	-663.13708	-35.87049	508.82535	778.92029	-38.47472	518.58960	32.14462	1393.27063	-824.46558	
866	8.650	-755.61469	71.01633	-621.59741	814.45386	71.54418	-626.49011	-663.70642	-36.03112	508.67133	778.80011	-38.62433	518.66058	31.35404	1393.82605	-823.16028	
